<?xml version="1.0" encoding="UTF-8" ?>
<!DOCTYPE svg PUBLIC "-//W3C//DTD SVG 1.1//EN" "http://www.w3.org/Graphics/SVG/1.1/DTD/svg11.dtd">
<svg width="997pt" height="756pt" viewBox="0 0 997 756" version="1.1" xmlns="http://www.w3.org/2000/svg">
<g id="#000000ff">
<path fill="#000000" opacity="1.00" d=" M 97.71 0.13 C 105.02 1.14 112.39 1.89 119.59 3.58 C 162.52 14.70 203.28 32.65 243.14 51.84 C 245.93 52.93 246.73 56.15 248.85 58.00 C 251.08 59.07 253.52 59.63 255.85 60.46 C 274.62 67.02 291.18 78.56 309.85 85.33 C 327.20 90.28 345.13 92.97 363.08 94.52 C 385.42 97.71 407.70 101.33 429.95 105.08 C 459.10 109.47 488.73 111.95 517.06 120.55 C 535.87 126.27 554.64 132.19 573.04 139.12 C 590.54 145.39 608.31 150.87 625.80 157.20 C 646.82 164.71 666.95 174.37 687.08 183.94 C 719.94 199.91 752.02 217.54 782.84 237.18 C 811.40 255.24 839.57 273.91 867.93 292.29 C 883.65 302.89 899.67 313.34 913.26 326.68 C 931.93 345.28 945.80 367.87 960.24 389.73 C 963.17 394.27 964.25 399.89 968.12 403.83 C 978.43 414.76 983.71 429.12 989.18 442.84 C 995.26 458.12 995.97 474.79 996.52 491.03 C 997.08 505.26 992.91 519.06 991.57 533.13 C 991.31 536.39 989.45 539.18 988.06 542.04 C 976.59 564.56 966.83 588.25 951.43 608.48 C 933.30 627.66 914.69 646.52 894.13 663.13 C 873.72 679.28 853.32 695.91 829.99 707.73 C 823.67 710.23 817.76 713.62 811.57 716.42 C 811.93 712.67 811.79 707.71 815.97 706.03 C 842.80 691.96 866.78 673.22 890.30 654.28 C 905.65 641.52 920.14 627.74 934.23 613.61 C 908.19 623.76 882.35 636.67 853.93 638.11 C 827.31 640.26 800.51 639.71 773.98 643.09 C 748.36 646.27 722.64 642.31 697.16 639.76 C 607.86 630.13 519.08 604.42 442.69 556.30 C 412.58 537.59 382.70 518.28 355.28 495.74 C 340.47 484.00 325.86 471.87 313.22 457.76 C 305.07 448.28 297.18 438.55 288.80 429.27 C 274.87 413.54 260.34 398.38 245.74 383.29 C 221.61 357.62 201.99 327.20 191.39 293.45 C 181.83 263.17 167.33 233.85 145.37 210.60 C 140.66 205.53 132.04 202.75 132.28 194.53 C 134.85 194.43 137.42 194.35 139.99 194.35 C 148.07 199.64 154.71 206.81 160.75 214.27 C 174.46 231.52 185.43 250.89 193.46 271.39 C 199.84 287.19 203.97 303.89 211.84 319.08 C 219.45 333.93 228.09 348.35 238.78 361.22 C 255.00 380.91 273.62 398.41 290.67 417.36 C 293.65 420.73 296.65 424.08 299.72 427.38 C 311.10 439.96 320.80 454.12 333.67 465.30 C 361.95 489.77 391.55 512.88 423.45 532.46 C 461.16 558.41 501.91 580.20 545.19 595.28 C 583.37 610.42 623.69 619.45 664.19 625.80 C 680.98 628.54 697.93 630.17 714.82 632.17 C 728.85 633.68 742.93 634.98 757.05 634.93 C 774.75 633.95 792.34 631.60 810.05 630.71 C 830.36 629.59 850.89 630.24 870.94 626.34 C 882.34 624.27 892.95 619.50 903.85 615.78 C 917.23 610.86 930.95 605.35 941.44 595.38 C 950.02 586.82 953.33 574.76 959.78 564.77 C 965.86 555.45 972.07 546.19 977.41 536.42 C 983.99 525.13 986.05 511.87 986.80 499.01 C 987.42 482.64 986.66 465.97 981.79 450.23 C 976.83 433.51 968.43 417.95 958.03 404.01 C 943.21 381.15 929.31 357.37 910.57 337.42 C 896.66 323.02 880.14 311.50 863.45 300.60 C 830.39 279.26 797.69 257.35 764.16 236.74 C 736.13 219.42 706.98 203.97 677.30 189.66 C 660.86 181.79 644.18 174.41 627.18 167.85 C 612.04 161.88 596.48 157.09 581.12 151.74 C 557.73 143.68 534.41 135.41 510.62 128.62 C 484.72 121.03 457.71 118.90 431.13 114.91 C 416.65 112.86 402.34 109.79 387.83 107.92 C 377.72 106.55 367.66 104.76 357.48 104.06 C 340.61 101.82 323.61 99.68 307.28 94.74 C 285.47 87.16 266.46 73.04 244.10 66.84 C 243.04 64.99 242.18 62.99 240.77 61.37 C 238.06 59.54 234.96 58.42 232.05 56.97 C 198.54 41.02 164.39 26.18 128.87 15.25 C 121.00 12.81 113.01 10.70 105.33 7.69 C 102.37 6.18 99.19 7.66 96.22 8.27 C 79.43 12.27 62.31 16.28 47.18 24.92 C 46.59 25.24 46.00 25.56 45.41 25.87 C 36.97 30.11 29.01 35.72 23.36 43.39 C 19.69 48.07 19.85 54.39 19.44 60.03 C 18.97 74.85 28.40 87.61 38.39 97.61 C 43.04 102.30 47.89 106.78 52.79 111.19 C 73.94 129.00 94.29 147.72 115.22 165.77 C 122.32 172.25 131.77 178.57 132.13 189.23 C 130.03 189.61 127.94 190.05 125.81 190.18 C 123.69 188.66 122.37 186.28 120.62 184.37 C 111.79 174.18 100.92 166.08 90.86 157.18 C 85.71 152.68 81.03 147.68 75.94 143.11 C 58.67 127.38 39.64 113.43 24.38 95.60 C 18.71 89.05 15.19 81.05 10.74 73.70 C 9.73 79.07 8.81 84.52 9.13 90.00 C 9.81 102.51 10.49 115.05 12.36 127.45 C 15.08 145.19 20.32 162.57 28.17 178.73 C 35.66 194.41 44.89 209.17 54.12 223.87 C 68.86 247.13 86.48 268.68 98.41 293.64 C 100.94 298.78 102.66 304.33 105.70 309.22 C 108.71 314.13 112.44 318.54 115.57 323.37 C 118.41 327.74 120.47 332.55 122.55 337.31 C 130.74 356.25 136.54 376.09 142.41 395.83 C 154.82 435.79 165.25 476.84 185.06 513.97 C 189.96 523.16 195.53 531.98 201.63 540.42 C 207.72 549.12 212.49 558.68 218.64 567.35 C 221.31 571.02 225.27 573.46 228.09 577.00 C 259.41 612.74 299.69 639.01 340.61 662.43 C 369.16 679.10 399.11 693.38 430.08 704.95 C 464.40 717.59 499.21 729.29 535.12 736.49 C 574.16 744.49 614.23 746.23 653.98 745.24 C 678.72 744.46 703.43 742.15 727.87 738.18 C 740.67 735.96 753.56 733.94 765.97 730.01 C 773.29 727.76 780.69 725.68 788.29 724.60 C 791.31 724.62 794.33 724.79 797.35 725.10 C 785.93 734.68 771.42 739.40 757.10 742.62 C 718.45 751.35 678.82 754.49 639.30 756.00 L 630.55 756.00 C 607.15 754.85 583.68 754.13 560.47 750.74 C 528.07 746.33 496.31 738.08 465.35 727.67 C 430.78 716.40 396.78 703.16 364.39 686.60 C 350.83 679.74 337.77 671.99 324.67 664.31 C 297.53 648.18 270.79 630.98 247.37 609.68 C 237.22 600.50 227.45 590.88 218.76 580.30 C 215.39 576.01 210.89 572.79 207.67 568.39 C 204.26 564.00 201.85 558.96 198.65 554.44 C 192.87 546.63 188.40 537.97 183.19 529.80 C 173.24 513.84 165.67 496.55 159.02 478.99 C 142.81 436.02 133.02 390.94 116.89 347.94 C 111.34 333.20 103.33 319.52 94.45 306.56 C 92.30 303.50 90.80 300.06 89.16 296.72 C 75.90 270.06 56.69 247.06 41.34 221.67 C 33.54 208.93 26.17 195.93 19.21 182.71 C 6.28 155.89 1.34 125.99 0.00 96.46 L 0.00 74.41 C 4.82 70.42 4.77 63.87 6.59 58.37 C 9.80 47.37 14.78 36.35 23.67 28.78 C 39.61 15.37 59.51 7.91 79.36 2.46 C 85.88 0.74 92.32 3.54 98.49 5.35 C 98.22 3.61 97.96 1.87 97.71 0.13 Z" />
<path fill="#000000" opacity="1.00" d=" M 76.93 40.29 C 83.99 46.47 91.55 52.04 98.91 57.86 C 103.91 61.96 109.20 65.77 113.56 70.58 C 116.36 74.37 119.52 77.88 122.94 81.12 C 121.57 80.42 120.19 79.72 118.83 79.00 C 102.86 70.26 89.29 57.87 73.59 48.70 C 75.70 48.33 77.82 48.01 79.94 47.68 C 78.94 45.21 77.94 42.75 76.93 40.29 Z" />
<path fill="#000000" opacity="1.00" d=" M 184.77 126.27 C 187.99 127.50 191.25 128.66 194.41 130.08 C 210.64 140.67 224.27 154.64 237.93 168.27 C 255.86 186.56 272.89 205.73 289.06 225.60 C 292.37 220.79 295.62 213.65 302.71 214.89 C 306.13 215.84 309.80 216.97 312.12 219.84 C 315.38 223.89 315.82 230.36 312.32 234.41 C 309.57 237.85 305.35 239.50 301.34 240.98 C 309.27 250.59 317.65 259.85 324.95 269.96 C 324.32 264.05 324.06 257.58 327.25 252.30 C 330.90 246.68 337.26 242.73 344.06 242.74 C 353.85 242.37 363.48 249.26 365.76 258.88 C 367.70 268.61 360.78 278.83 351.46 281.65 C 346.06 283.03 340.47 281.97 335.03 281.47 C 346.02 291.88 356.32 303.00 367.32 313.40 C 373.06 318.94 379.05 324.21 385.08 329.43 C 388.74 333.13 392.88 336.32 397.11 339.36 C 398.17 334.08 399.33 328.83 400.58 323.60 C 395.63 323.77 390.69 324.01 385.75 323.94 C 379.99 320.60 374.50 316.44 371.02 310.65 C 368.68 304.48 368.69 297.41 371.40 291.36 C 374.83 283.30 383.12 277.31 391.99 277.38 C 400.66 277.17 409.35 282.11 413.05 290.06 C 416.70 296.55 415.60 304.29 414.13 311.24 C 422.41 310.02 432.86 309.04 438.76 316.31 C 444.19 324.33 446.27 334.01 450.14 342.79 C 456.13 342.36 462.31 341.22 468.23 342.82 C 473.46 344.47 476.69 349.22 480.03 353.24 C 489.73 351.23 501.02 349.02 509.67 355.32 C 516.53 359.65 518.34 368.15 519.15 375.65 C 521.51 377.22 523.87 378.79 526.21 380.39 C 532.18 379.38 538.16 377.64 544.28 378.37 C 544.47 378.41 544.87 378.49 545.07 378.53 C 548.47 380.67 551.65 383.13 554.70 385.75 C 561.84 383.48 569.77 382.54 576.94 385.22 C 583.41 387.53 588.49 393.41 589.77 400.17 C 590.81 406.44 588.43 412.73 584.76 417.74 C 583.34 419.51 583.13 421.80 582.74 423.96 C 588.58 422.41 594.88 419.68 600.88 422.12 C 605.27 423.67 608.19 427.50 612.00 429.95 C 614.34 430.20 616.70 430.03 619.05 430.01 C 615.62 426.83 611.38 423.24 611.94 418.03 C 610.96 406.43 624.67 397.04 635.16 401.92 C 644.09 405.44 647.03 417.97 641.48 425.52 C 638.41 429.75 633.38 431.75 628.90 434.07 C 631.26 436.32 633.63 438.57 635.98 440.84 C 645.32 438.64 656.08 433.53 665.12 439.31 C 666.98 440.85 668.92 442.29 671.01 443.52 C 672.36 440.84 672.22 437.85 672.06 434.95 C 672.00 426.42 676.94 418.58 683.52 413.47 C 689.08 409.43 694.78 404.74 701.91 404.09 C 710.87 402.60 720.52 408.25 723.18 417.00 C 724.71 421.83 724.03 426.97 723.36 431.89 C 721.02 435.83 717.72 439.07 714.35 442.13 C 712.29 443.35 710.16 444.43 708.01 445.45 C 711.80 450.90 715.73 457.08 714.91 464.04 C 714.80 470.10 710.48 474.73 706.87 479.14 C 706.95 484.78 707.63 490.69 705.11 495.96 C 709.65 496.28 714.18 496.74 718.72 497.26 C 718.91 493.12 718.58 488.88 719.65 484.85 C 721.57 480.09 725.50 476.56 728.88 472.82 C 734.78 471.02 741.32 469.63 747.30 471.87 C 753.40 474.74 758.23 481.08 758.12 487.99 C 757.92 492.51 756.39 496.82 755.29 501.17 C 767.47 502.31 779.73 503.36 791.97 502.69 C 804.00 502.38 815.27 497.68 827.06 495.84 C 827.17 498.64 827.28 501.45 827.41 504.26 C 815.68 508.44 803.53 511.87 791.04 512.53 C 785.00 512.87 778.96 512.29 772.94 511.96 C 750.28 510.58 727.61 508.82 705.16 505.36 C 696.93 503.85 689.24 509.94 681.03 507.59 C 672.63 505.76 669.29 496.24 661.26 493.66 C 651.66 490.20 641.86 487.27 632.36 483.52 C 599.10 470.81 567.82 453.55 534.76 440.36 C 515.36 431.99 496.18 422.98 478.00 412.17 C 471.84 408.39 464.09 407.38 458.93 402.00 C 452.75 395.89 445.13 391.61 438.07 386.65 C 419.77 372.88 402.65 357.65 384.99 343.10 C 375.63 334.77 367.00 325.67 357.74 317.23 C 347.22 308.11 337.84 297.77 328.36 287.60 C 307.62 265.16 289.77 240.29 269.84 217.17 C 257.17 202.22 244.02 187.67 230.04 173.96 C 215.83 159.90 202.39 144.64 185.41 133.81 C 185.20 131.29 184.99 128.78 184.77 126.27 M 343.29 256.21 C 339.39 257.94 343.95 263.46 346.74 260.77 C 349.65 258.84 345.88 254.25 343.29 256.21 M 390.22 297.42 C 392.22 297.01 394.24 296.61 396.24 296.18 C 394.91 294.80 393.54 293.45 392.18 292.11 C 391.49 293.87 390.85 295.64 390.22 297.42 M 418.42 319.37 C 417.61 324.26 419.71 330.57 425.53 330.74 C 424.49 326.95 423.22 323.23 422.20 319.43 C 420.94 319.40 419.68 319.38 418.42 319.37 M 423.90 363.51 C 429.62 367.49 435.14 371.75 440.44 376.28 C 437.37 367.75 437.63 358.04 442.02 350.01 C 437.69 356.41 431.07 360.86 423.90 363.51 M 456.27 354.32 C 456.67 356.71 457.09 359.11 457.51 361.51 C 461.07 361.64 464.74 361.60 467.99 359.94 C 464.05 358.13 460.12 356.30 456.27 354.32 M 486.51 362.06 C 489.94 367.78 495.62 371.80 498.57 377.86 C 502.13 376.22 505.73 374.65 509.35 373.12 C 509.04 369.89 508.21 366.48 505.63 364.30 C 500.47 359.70 492.67 359.62 486.51 362.06 M 533.07 388.10 C 533.17 392.14 530.90 398.71 536.46 399.96 C 537.29 402.04 538.83 403.68 540.40 405.23 C 541.02 407.57 541.77 409.85 542.37 412.19 C 543.97 404.32 546.66 396.44 545.64 388.29 C 541.45 388.14 537.26 388.10 533.07 388.10 M 511.48 389.86 C 513.82 392.98 517.14 395.09 520.52 396.91 C 520.78 395.02 521.16 392.78 519.63 391.31 C 517.53 389.08 514.22 389.35 511.48 389.86 M 577.53 398.44 C 577.50 400.40 577.49 402.36 577.48 404.33 C 578.50 404.40 580.55 404.55 581.57 404.63 C 581.39 401.75 581.02 398.89 580.40 396.08 C 579.68 396.67 578.25 397.85 577.53 398.44 M 486.69 405.06 C 487.22 407.93 490.24 410.02 493.09 408.84 C 495.23 405.27 489.20 402.54 486.69 405.06 M 565.13 414.70 C 565.11 418.32 565.10 421.93 565.17 425.55 C 566.41 425.64 567.66 425.74 568.91 425.84 C 569.01 422.19 569.12 418.54 569.14 414.89 C 567.80 414.82 566.46 414.76 565.13 414.70 M 700.08 419.22 C 699.99 420.63 699.90 422.05 699.82 423.47 C 702.43 423.71 705.04 423.90 707.66 424.14 C 709.40 425.85 711.25 427.45 713.19 428.95 C 713.00 425.59 712.22 422.31 710.83 419.26 C 707.24 419.24 703.66 419.25 700.08 419.22 M 529.98 427.38 C 532.44 428.43 534.91 429.48 537.37 430.56 C 537.84 427.75 538.54 424.98 539.60 422.33 C 536.42 424.07 533.15 425.63 529.98 427.38 M 590.56 429.87 C 592.88 433.71 596.02 438.17 601.02 438.17 C 602.82 436.91 603.38 434.46 604.55 432.66 C 600.27 430.35 595.40 429.35 590.56 429.87 M 681.48 432.42 C 681.21 436.47 681.12 440.53 681.10 444.60 C 683.42 444.25 685.74 443.91 688.08 443.55 C 687.41 439.12 685.07 435.10 681.48 432.42 M 572.82 445.89 C 579.89 450.45 587.66 453.87 595.74 456.23 C 595.88 453.10 595.99 449.97 596.12 446.84 C 591.46 444.24 587.15 440.97 583.78 436.80 C 579.17 438.52 576.16 442.52 572.82 445.89 M 656.68 439.91 C 655.65 447.19 663.48 449.89 668.79 452.15 C 666.98 446.40 662.34 441.86 656.68 439.91 M 693.90 452.89 C 693.90 456.61 698.02 458.23 700.60 460.05 C 700.15 456.87 700.25 452.74 696.93 451.03 C 695.65 451.02 694.69 452.02 693.90 452.89 M 656.89 482.07 C 659.84 483.27 662.92 484.06 666.09 484.44 C 666.27 481.52 666.43 478.60 666.56 475.68 C 669.65 472.86 673.56 470.38 673.98 465.80 C 669.18 472.10 663.15 477.27 656.89 482.07 M 744.45 480.22 C 744.22 481.39 744.00 482.56 743.80 483.74 C 745.24 483.87 746.70 483.99 748.16 484.13 C 748.11 482.69 748.07 481.26 748.03 479.83 C 746.83 479.96 745.63 480.09 744.45 480.22 Z" />
<path fill="#000000" opacity="1.00" d=" M 324.49 182.90 C 329.14 183.77 333.80 184.63 338.46 185.53 C 344.27 187.13 350.01 189.01 355.82 190.61 C 370.64 194.86 385.29 199.86 400.48 202.66 C 400.95 202.77 401.90 203.00 402.37 203.11 C 428.46 211.07 455.63 214.65 481.92 221.82 C 485.92 223.29 490.01 221.40 493.95 220.59 C 499.09 219.48 503.15 215.93 507.91 213.92 C 515.47 211.12 524.52 214.37 528.91 221.06 C 531.18 224.16 531.90 228.01 532.33 231.75 C 536.80 233.19 541.28 234.62 545.76 236.03 C 548.75 230.08 552.44 223.52 559.11 221.20 C 565.48 219.71 573.23 219.84 578.03 224.96 C 581.56 227.86 582.50 233.20 587.03 234.93 C 593.91 238.32 598.84 244.87 600.82 252.21 C 616.44 257.87 632.10 263.58 646.94 271.10 C 661.94 278.38 676.06 287.28 690.73 295.18 C 693.93 296.85 697.13 299.14 700.94 298.88 C 707.93 299.02 715.93 298.26 721.55 303.30 C 728.29 308.21 726.73 318.52 733.62 323.29 C 745.53 332.41 756.80 342.33 768.18 352.10 C 774.80 358.55 781.35 365.07 787.69 371.78 C 807.71 396.61 829.45 420.65 843.52 449.56 C 845.96 454.15 847.14 459.43 850.55 463.47 C 852.98 466.59 856.10 469.76 856.11 474.00 C 854.28 476.25 851.12 477.02 848.67 478.48 C 836.78 464.91 832.15 446.93 821.93 432.29 C 820.77 430.42 819.57 428.58 818.34 426.77 C 813.02 417.95 806.05 410.32 799.70 402.27 C 786.37 385.76 773.19 368.85 756.79 355.23 C 754.19 352.90 751.60 350.57 748.84 348.46 C 741.77 342.05 734.60 335.72 726.79 330.23 C 724.22 332.82 721.74 335.47 719.16 338.03 C 717.35 339.15 715.51 340.20 713.62 341.16 C 711.65 341.40 709.68 341.63 707.72 341.86 C 707.20 344.48 705.96 347.26 707.01 349.90 C 707.84 351.18 709.07 352.14 710.18 353.19 C 708.87 358.22 707.36 363.79 702.75 366.83 C 693.63 373.84 678.07 368.39 676.17 356.78 C 673.40 346.24 682.92 336.09 693.24 335.58 C 686.98 331.35 686.35 323.15 687.06 316.29 C 688.14 312.84 689.49 309.48 690.73 306.08 C 688.60 304.93 686.49 303.78 684.35 302.68 C 681.79 301.28 679.28 299.77 676.75 298.32 C 675.81 304.47 675.11 311.10 671.17 316.19 C 667.92 320.14 663.21 323.04 658.08 323.58 C 653.03 324.15 647.97 323.38 642.96 322.77 C 642.24 328.72 642.78 335.63 638.38 340.34 C 633.95 345.52 627.04 347.46 620.51 348.20 C 622.33 349.10 624.28 349.88 625.82 351.26 C 627.49 352.83 627.71 355.25 628.36 357.33 C 616.74 356.93 604.13 353.82 596.27 344.67 C 592.63 340.38 594.64 334.49 595.81 329.66 C 604.14 326.09 605.31 315.40 613.04 311.14 C 618.63 307.65 625.48 308.69 631.70 309.10 C 632.01 304.34 632.25 299.56 632.91 294.82 C 635.53 289.07 640.46 284.91 645.11 280.83 C 638.84 278.14 632.64 275.28 626.48 272.37 C 627.36 278.75 627.87 285.23 627.04 291.65 C 620.47 306.70 596.97 310.43 586.67 297.31 C 581.08 290.75 581.63 281.52 583.54 273.66 C 578.24 273.37 572.52 273.21 568.10 269.87 C 563.34 266.85 561.99 261.10 559.47 256.45 C 556.78 253.46 553.37 251.24 550.29 248.68 C 544.24 243.77 536.21 242.95 528.82 241.60 C 525.12 244.89 520.99 247.72 516.31 249.42 C 511.08 251.44 507.36 255.97 502.29 258.26 C 495.73 260.34 488.92 257.99 482.52 256.41 C 481.25 263.29 476.38 270.12 469.03 271.05 C 460.28 272.73 453.16 266.51 446.04 262.60 C 445.76 260.19 445.53 257.78 445.32 255.37 C 441.51 253.07 437.66 250.83 434.09 248.17 C 431.09 243.58 429.70 237.68 431.52 232.38 C 433.56 228.22 437.41 225.38 440.64 222.18 C 434.97 221.10 429.32 219.97 423.66 218.88 C 425.32 221.36 427.26 223.67 428.59 226.36 C 429.14 229.26 428.86 232.25 428.98 235.19 C 427.18 237.38 425.38 239.56 423.61 241.77 C 420.12 242.56 416.62 243.55 413.03 243.61 C 408.14 243.59 402.94 240.44 401.82 235.46 C 400.86 230.95 401.52 226.31 401.68 221.75 C 404.79 219.62 407.93 217.54 411.08 215.48 C 388.28 210.30 365.83 203.71 343.56 196.64 C 337.39 194.06 331.07 191.87 324.73 189.79 C 324.64 187.49 324.56 185.19 324.49 182.90 M 515.21 223.38 C 515.09 224.51 514.83 226.76 514.71 227.88 C 517.90 227.81 521.05 227.08 523.84 225.48 C 521.09 224.32 518.15 223.77 515.21 223.38 M 460.38 227.46 C 458.67 228.98 460.59 230.56 461.52 231.87 L 462.23 231.55 C 462.81 234.31 463.41 237.06 464.00 239.82 C 468.04 240.81 472.11 241.66 476.17 242.56 L 475.93 241.25 C 476.55 237.34 477.11 233.42 477.63 229.49 C 474.81 229.24 472.00 228.88 469.17 228.82 C 467.00 226.34 463.20 225.64 460.38 227.46 M 585.24 252.16 C 581.82 254.38 587.06 259.32 589.42 256.45 C 591.47 254.14 587.66 250.07 585.24 252.16 M 462.77 252.62 C 462.74 255.43 462.65 258.24 462.59 261.06 C 464.01 261.81 465.42 262.56 466.84 263.32 C 466.93 259.75 467.03 256.18 467.01 252.62 C 465.59 252.61 464.18 252.62 462.77 252.62 M 610.65 270.48 C 610.48 275.17 613.37 279.04 615.20 283.14 C 616.20 280.03 617.38 276.41 615.55 273.36 C 614.59 271.51 612.41 271.11 610.65 270.48 M 646.19 297.60 C 645.20 299.25 643.30 301.16 644.87 303.08 C 647.81 307.46 653.67 304.71 657.66 303.56 C 653.60 302.07 649.54 300.39 646.19 297.60 M 710.84 315.41 C 711.17 316.82 711.53 318.23 711.90 319.65 C 713.21 319.52 714.53 319.39 715.86 319.27 C 715.92 317.92 715.99 316.57 716.06 315.23 C 715.45 314.68 714.23 313.57 713.62 313.02 C 712.68 313.82 711.76 314.61 710.84 315.41 M 626.36 318.56 C 626.68 320.68 627.03 322.81 627.38 324.95 C 628.96 325.04 630.56 325.13 632.16 325.22 C 633.18 324.49 634.20 323.76 635.23 323.03 C 635.41 321.83 635.59 320.63 635.80 319.43 C 632.65 319.14 629.50 318.84 626.36 318.56 M 601.15 335.58 C 602.73 338.94 605.21 341.72 607.97 344.16 C 609.85 344.12 611.74 344.08 613.63 344.03 C 611.50 343.13 609.35 342.29 607.20 341.49 C 606.66 339.72 606.14 337.96 605.64 336.20 C 604.14 335.98 602.64 335.77 601.15 335.58 Z" />
<path fill="#000000" opacity="1.00" d=" M 524.38 253.46 C 529.35 251.79 535.16 252.58 539.50 255.54 C 542.28 257.43 543.64 260.67 546.01 262.98 C 549.75 266.70 554.42 269.29 558.28 272.88 C 558.24 275.17 558.23 277.46 558.21 279.75 C 554.22 279.96 551.53 276.96 548.77 274.59 C 546.01 279.13 542.80 283.40 539.08 287.21 C 539.28 290.32 539.53 293.43 539.75 296.55 C 535.26 296.39 530.00 296.85 526.47 293.49 C 522.41 289.57 518.48 285.47 515.05 280.99 C 512.46 276.52 512.43 271.06 512.63 266.05 C 515.21 260.89 518.97 255.86 524.38 253.46 Z" />
<path fill="#000000" opacity="1.00" d=" M 492.28 275.89 C 498.86 274.66 506.34 273.99 512.22 277.83 C 515.49 282.96 518.20 289.94 514.73 295.66 C 512.13 301.17 505.86 304.26 499.89 303.57 C 492.69 303.19 486.36 297.15 485.72 289.97 C 485.58 284.50 489.29 280.10 492.28 275.89 Z" />
<path fill="#000000" opacity="1.00" d=" M 462.33 283.50 C 472.95 280.06 484.35 290.09 483.32 300.90 C 482.46 306.75 478.68 312.43 472.99 314.53 C 466.11 317.41 457.35 315.23 453.22 308.84 C 446.30 300.39 451.71 285.71 462.33 283.50 Z" />
<path fill="#000000" opacity="1.00" d=" M 541.54 310.71 C 550.19 308.92 559.79 312.93 564.51 320.42 C 567.11 324.39 567.33 329.30 567.20 333.91 C 566.77 343.80 557.87 352.28 548.07 352.76 C 535.88 354.34 524.13 343.19 524.79 331.00 C 524.73 321.41 532.35 312.79 541.54 310.71 Z" />
<path fill="#000000" opacity="1.00" d=" M 744.63 379.70 C 751.37 375.71 760.58 376.19 766.51 381.47 C 771.56 385.68 773.07 392.43 774.00 398.63 C 779.11 398.60 784.75 397.74 789.34 400.56 C 797.28 405.90 803.69 415.01 802.58 424.98 C 802.72 431.03 797.43 434.82 793.19 438.16 C 786.94 439.37 780.38 437.39 775.43 433.51 C 769.33 428.90 765.53 421.87 763.81 414.52 C 756.30 415.61 748.70 414.33 741.79 411.28 C 738.87 406.26 735.49 401.04 735.52 395.02 C 735.85 388.87 739.10 382.69 744.63 379.70 M 754.29 393.94 C 756.74 393.88 759.20 393.80 761.67 393.71 C 761.76 393.07 761.93 391.77 762.02 391.13 C 759.66 388.75 757.48 386.21 755.27 383.71 C 752.88 386.66 753.99 390.51 754.29 393.94 M 780.06 405.03 C 781.02 411.04 787.60 412.66 792.67 413.56 C 790.28 408.88 785.92 403.89 780.06 405.03 Z" />
<path fill="#000000" opacity="1.00" d=" M 778.49 450.62 C 785.10 448.32 792.29 448.62 799.14 449.50 C 805.42 450.29 810.08 455.12 816.04 456.83 C 818.81 457.45 820.79 459.57 822.92 461.30 C 822.98 463.57 823.14 465.85 822.91 468.12 C 821.80 470.83 819.32 472.93 819.03 475.97 C 817.57 485.62 809.50 493.55 800.11 495.67 C 793.48 496.78 786.51 497.02 780.02 495.05 C 772.34 492.95 765.99 486.85 763.66 479.24 C 760.23 467.82 767.13 454.37 778.49 450.62 M 790.18 463.46 C 793.79 464.35 797.63 464.44 801.08 465.88 C 803.86 468.22 805.61 471.51 807.92 474.29 C 808.42 468.57 806.52 461.62 800.58 459.48 C 796.85 458.80 791.29 458.84 790.18 463.46 Z" />
<path fill="#000000" opacity="1.00" d=" M 838.36 492.35 C 840.90 491.94 843.50 491.95 846.08 492.03 C 846.63 492.05 847.73 492.09 848.28 492.12 C 847.54 494.38 846.84 496.66 845.99 498.89 C 843.62 500.99 841.34 503.19 839.10 505.42 C 836.97 504.28 834.86 503.13 832.76 501.97 C 834.11 498.49 836.12 495.33 838.36 492.35 Z" />
</g>
<g id="#ffc232ff">
<path fill="#ffc232" opacity="1.00" d=" M 96.22 8.27 C 99.19 7.66 102.37 6.18 105.33 7.69 C 113.01 10.70 121.00 12.81 128.87 15.25 C 164.39 26.18 198.54 41.02 232.05 56.97 C 234.96 58.42 238.06 59.54 240.77 61.37 C 242.18 62.99 243.04 64.99 244.10 66.84 C 266.46 73.04 285.47 87.16 307.28 94.74 C 323.61 99.68 340.61 101.82 357.48 104.06 C 346.43 106.43 335.16 103.85 324.33 101.54 C 315.87 99.53 307.26 97.99 299.11 94.88 C 284.10 89.25 270.51 80.55 255.87 74.10 C 251.08 71.96 245.90 70.57 241.58 67.51 C 237.64 64.75 233.97 61.55 229.61 59.44 C 193.13 41.74 155.43 26.49 116.69 14.47 C 111.25 12.84 105.78 10.50 99.98 11.12 C 94.00 11.69 88.15 13.20 82.43 14.96 C 88.06 19.97 94.81 23.54 100.20 28.84 C 103.69 32.01 106.39 35.93 108.60 40.08 C 104.93 42.90 101.13 45.58 97.85 48.86 C 98.42 51.83 98.74 54.84 98.91 57.86 C 91.55 52.04 83.99 46.47 76.93 40.29 C 77.94 42.75 78.94 45.21 79.94 47.68 C 77.82 48.01 75.70 48.33 73.59 48.70 C 70.17 50.95 67.53 54.12 64.67 57.00 C 57.88 53.38 53.25 46.98 49.49 40.46 C 48.76 39.00 47.78 37.28 48.56 35.64 C 50.10 33.09 52.62 31.36 54.79 29.39 C 52.29 27.83 49.75 26.35 47.18 24.92 C 62.31 16.28 79.43 12.27 96.22 8.27 Z" />
<path fill="#ffc232" opacity="1.00" d=" M 23.36 43.39 C 29.01 35.72 36.97 30.11 45.41 25.87 C 40.30 34.77 30.08 39.09 24.84 47.91 C 22.21 52.07 22.26 57.23 22.80 61.95 C 24.49 76.31 33.37 88.67 43.67 98.32 C 60.45 113.93 78.54 128.08 95.27 143.75 C 107.15 155.23 121.00 164.65 131.68 177.37 C 134.96 181.32 135.36 186.64 135.77 191.54 C 134.56 190.76 133.34 189.99 132.13 189.23 C 131.77 178.57 122.32 172.25 115.22 165.77 C 94.29 147.72 73.94 129.00 52.79 111.19 C 47.89 106.78 43.04 102.30 38.39 97.61 C 28.40 87.61 18.97 74.85 19.44 60.03 C 19.85 54.39 19.69 48.07 23.36 43.39 Z" />
<path fill="#ffc232" opacity="1.00" d=" M 175.61 129.64 L 177.43 129.91 C 180.08 131.22 182.77 132.47 185.41 133.81 C 202.39 144.64 215.83 159.90 230.04 173.96 C 244.02 187.67 257.17 202.22 269.84 217.17 C 289.77 240.29 307.62 265.16 328.36 287.60 C 337.84 297.77 347.22 308.11 357.74 317.23 C 367.00 325.67 375.63 334.77 384.99 343.10 C 402.65 357.65 419.77 372.88 438.07 386.65 C 438.06 387.18 438.04 388.26 438.02 388.80 C 434.64 387.58 431.45 385.84 428.00 384.82 C 425.37 385.48 423.68 388.06 421.60 389.70 C 416.73 388.20 412.99 384.67 408.88 381.86 C 403.59 381.57 398.26 381.72 392.97 381.17 C 391.29 382.39 390.49 384.46 389.05 385.94 C 382.60 386.64 377.48 381.77 372.95 377.90 C 373.01 375.98 373.07 374.06 373.13 372.14 C 375.51 371.56 378.05 371.39 380.26 370.32 C 383.07 364.03 385.54 357.56 387.54 350.96 C 362.16 324.19 333.29 300.83 309.73 272.33 C 303.89 265.42 298.93 257.81 292.98 250.99 C 288.91 246.09 284.32 241.61 280.61 236.42 C 270.90 222.68 258.77 210.93 248.02 198.05 C 245.74 195.29 243.60 192.41 241.10 189.85 C 228.80 177.49 216.50 165.14 204.13 152.86 C 195.71 143.83 183.84 138.86 175.61 129.64 Z" />
<path fill="#ffc232" opacity="1.00" d=" M 263.93 139.12 C 273.34 140.43 279.49 148.26 287.29 152.80 C 291.04 155.29 295.88 156.88 298.13 161.05 C 296.65 164.89 291.56 162.51 289.00 161.05 C 283.33 156.91 277.13 153.59 271.43 149.51 C 268.09 146.82 264.68 143.56 263.93 139.12 Z" />
<path fill="#ffc232" opacity="1.00" d=" M 265.84 153.99 C 272.96 157.48 280.57 161.64 284.30 169.00 C 280.79 170.99 277.08 168.82 274.16 166.80 C 269.80 163.91 266.18 159.38 265.84 153.99 Z" />
<path fill="#ffc232" opacity="1.00" d=" M 401.59 202.08 C 412.06 202.10 422.17 205.27 432.28 207.64 C 441.40 210.15 450.79 211.50 459.98 213.74 C 469.23 215.87 478.48 218.36 487.99 219.01 C 496.31 219.82 501.24 210.87 509.31 210.53 C 515.68 210.16 523.03 210.26 527.85 215.11 C 533.93 220.07 534.95 229.79 542.91 232.65 C 545.84 228.43 548.43 223.68 552.84 220.80 C 556.21 218.83 560.29 219.16 564.05 218.95 C 568.11 219.00 572.29 218.60 576.26 219.67 C 581.13 221.52 583.76 226.33 587.01 230.08 C 591.16 235.25 598.27 237.44 601.35 243.59 C 603.21 246.61 604.19 250.94 608.12 251.92 C 617.61 255.31 627.29 258.26 636.39 262.63 C 641.16 264.95 646.14 266.82 650.91 269.15 C 664.34 275.72 676.83 283.98 689.98 291.05 C 693.51 292.93 696.91 295.39 700.97 295.95 C 707.30 296.93 714.09 296.00 720.00 298.96 C 725.86 301.59 730.00 307.15 731.57 313.31 C 732.44 317.80 736.14 320.70 739.56 323.33 C 748.25 329.95 756.27 337.37 764.60 344.42 C 766.99 346.27 767.90 349.21 768.18 352.10 C 756.80 342.33 745.53 332.41 733.62 323.29 C 726.73 318.52 728.29 308.21 721.55 303.30 C 715.93 298.26 707.93 299.02 700.94 298.88 C 697.13 299.14 693.93 296.85 690.73 295.18 C 676.06 287.28 661.94 278.38 646.94 271.10 C 632.10 263.58 616.44 257.87 600.82 252.21 C 598.84 244.87 593.91 238.32 587.03 234.93 C 582.50 233.20 581.56 227.86 578.03 224.96 C 573.23 219.84 565.48 219.71 559.11 221.20 C 552.44 223.52 548.75 230.08 545.76 236.03 C 541.28 234.62 536.80 233.19 532.33 231.75 C 531.90 228.01 531.18 224.16 528.91 221.06 C 524.52 214.37 515.47 211.12 507.91 213.92 C 503.15 215.93 499.09 219.48 493.95 220.59 C 490.01 221.40 485.92 223.29 481.92 221.82 C 455.63 214.65 428.46 211.07 402.37 203.11 L 401.59 202.08 Z" />
<path fill="#ffc232" opacity="1.00" d=" M 626.48 272.37 C 632.64 275.28 638.84 278.14 645.11 280.83 C 640.46 284.91 635.53 289.07 632.91 294.82 C 630.95 293.76 629.00 292.70 627.04 291.65 C 627.87 285.23 627.36 278.75 626.48 272.37 Z" />
<path fill="#ffc232" opacity="1.00" d=" M 768.89 338.22 C 776.13 338.60 782.70 341.91 789.66 343.58 C 792.82 344.86 794.83 341.36 797.10 339.79 C 805.78 343.65 813.36 349.80 819.45 357.06 C 818.18 358.74 816.33 360.49 814.03 359.76 C 809.96 358.84 805.65 358.93 801.88 360.89 C 801.87 364.05 803.90 366.87 803.96 370.06 C 804.04 372.42 801.38 373.81 799.32 373.45 C 794.37 370.14 791.48 364.72 787.60 360.36 C 781.15 353.20 773.29 346.96 768.89 338.22 Z" />
<path fill="#ffc232" opacity="1.00" d=" M 808.32 340.73 C 811.41 339.15 815.49 338.01 818.39 340.62 C 823.89 344.94 828.68 350.37 831.99 356.54 C 829.87 356.88 827.57 357.68 825.60 356.44 C 818.66 352.72 813.13 346.86 808.32 340.73 Z" />
<path fill="#ffc232" opacity="1.00" d=" M 239.17 357.59 C 246.84 363.69 252.12 372.11 258.93 379.05 C 272.24 391.77 283.98 405.99 296.88 419.11 C 309.16 431.24 318.53 446.00 331.13 457.83 C 354.72 480.66 381.38 500.00 408.26 518.70 C 413.79 522.64 421.27 525.38 423.45 532.46 C 391.55 512.88 361.95 489.77 333.67 465.30 C 320.80 454.12 311.10 439.96 299.72 427.38 C 296.65 424.08 293.65 420.73 290.67 417.36 C 273.62 398.41 255.00 380.91 238.78 361.22 C 238.87 360.31 239.07 358.50 239.17 357.59 Z" />
<path fill="#ffc232" opacity="1.00" d=" M 788.14 369.09 C 791.47 371.26 794.45 373.96 796.80 377.19 C 810.22 394.50 825.12 410.77 836.46 429.60 C 843.80 442.42 850.70 455.48 857.40 468.65 C 858.70 471.02 859.51 474.31 857.51 476.55 C 854.35 479.68 849.59 480.04 845.39 480.01 C 837.61 468.18 832.14 455.07 825.17 442.78 C 823.26 439.59 822.33 435.96 821.93 432.29 C 832.15 446.93 836.78 464.91 848.67 478.48 C 851.12 477.02 854.28 476.25 856.11 474.00 C 856.10 469.76 852.98 466.59 850.55 463.47 C 847.14 459.43 845.96 454.15 843.52 449.56 C 829.45 420.65 807.71 396.61 787.69 371.78 C 787.81 371.11 788.03 369.76 788.14 369.09 Z" />
<path fill="#ffc232" opacity="1.00" d=" M 852.06 425.12 C 858.51 428.96 864.47 435.10 865.16 442.93 C 855.70 446.15 846.84 433.16 852.06 425.12 Z" />
<path fill="#ffc232" opacity="1.00" d=" M 880.89 461.38 C 883.46 460.22 886.84 458.02 889.16 460.90 C 900.68 472.28 915.51 481.07 923.05 495.91 C 918.76 497.66 914.47 495.41 911.07 492.88 C 902.94 487.00 898.09 477.87 890.57 471.36 C 887.19 468.19 883.27 465.44 880.89 461.38 Z" />
<path fill="#ffc232" opacity="1.00" d=" M 874.09 483.21 C 885.74 482.72 896.13 489.13 905.11 495.83 C 907.59 497.32 907.46 500.75 906.06 502.95 C 904.29 505.86 902.26 508.64 899.93 511.13 C 892.00 510.40 884.60 506.74 877.18 504.01 C 877.02 503.16 876.69 501.45 876.53 500.60 C 881.38 499.86 886.31 499.78 891.16 499.02 C 887.61 494.44 881.84 492.65 877.00 489.85 C 874.52 488.68 874.80 485.46 874.09 483.21 Z" />
<path fill="#ffc232" opacity="1.00" d=" M 858.01 508.03 C 861.38 507.95 864.82 508.02 868.08 509.03 C 876.15 511.13 882.55 516.86 890.32 519.70 C 893.94 520.95 896.28 524.13 896.97 527.83 C 882.00 529.82 871.52 516.56 858.05 512.74 C 858.03 511.17 858.01 509.59 858.01 508.03 Z" />
</g>
<g id="#ffac00ff">
<path fill="#ffac00" opacity="1.00" d=" M 82.43 14.96 C 88.15 13.20 94.00 11.69 99.98 11.12 C 105.78 10.50 111.25 12.84 116.69 14.47 C 155.43 26.49 193.13 41.74 229.61 59.44 C 233.97 61.55 237.64 64.75 241.58 67.51 C 245.90 70.57 251.08 71.96 255.87 74.10 C 270.51 80.55 284.10 89.25 299.11 94.88 C 307.26 97.99 315.87 99.53 324.33 101.54 C 335.16 103.85 346.43 106.43 357.48 104.06 C 367.66 104.76 377.72 106.55 387.83 107.92 C 389.09 109.38 390.26 110.97 391.81 112.14 C 394.11 112.88 396.57 112.82 398.95 113.04 C 415.61 114.02 431.81 118.37 448.30 120.61 C 463.21 122.09 477.98 124.59 492.68 127.44 C 501.85 129.07 510.70 132.02 519.65 134.53 C 537.27 139.76 554.75 145.47 571.94 152.02 C 583.16 156.65 595.06 159.32 606.45 163.50 C 640.19 175.18 672.62 190.31 704.25 206.80 C 720.25 215.33 736.41 223.62 751.86 233.15 C 787.01 254.34 820.87 277.57 855.56 299.49 C 870.34 309.55 885.51 319.18 898.90 331.09 C 907.74 338.66 914.92 347.88 922.08 356.99 C 931.94 369.70 940.89 383.15 948.55 397.31 C 952.98 405.63 959.90 412.22 964.81 420.23 C 980.10 446.82 987.33 478.57 982.22 509.04 C 980.52 518.99 977.87 528.94 972.66 537.67 C 967.03 547.29 960.14 556.12 954.90 565.97 C 950.10 575.19 946.28 585.25 938.72 592.68 C 927.91 603.52 913.08 608.63 899.12 614.03 C 882.26 620.07 864.96 625.62 846.99 626.86 C 831.00 628.28 814.92 626.87 798.93 628.31 C 771.66 631.17 743.86 634.48 716.63 629.41 C 709.17 627.96 701.54 628.00 694.02 627.02 C 675.77 625.06 657.70 621.71 639.65 618.41 C 614.43 614.13 589.68 607.39 565.36 599.53 C 558.78 597.60 552.28 593.36 545.19 595.28 C 501.91 580.20 461.16 558.41 423.45 532.46 C 421.27 525.38 413.79 522.64 408.26 518.70 C 381.38 500.00 354.72 480.66 331.13 457.83 C 318.53 446.00 309.16 431.24 296.88 419.11 C 283.98 405.99 272.24 391.77 258.93 379.05 C 252.12 372.11 246.84 363.69 239.17 357.59 C 239.07 358.50 238.87 360.31 238.78 361.22 C 228.09 348.35 219.45 333.93 211.84 319.08 C 203.97 303.89 199.84 287.19 193.46 271.39 C 185.43 250.89 174.46 231.52 160.75 214.27 C 154.71 206.81 148.07 199.64 139.99 194.35 C 138.57 193.42 137.18 192.47 135.77 191.54 C 135.36 186.64 134.96 181.32 131.68 177.37 C 121.00 164.65 107.15 155.23 95.27 143.75 C 78.54 128.08 60.45 113.93 43.67 98.32 C 33.37 88.67 24.49 76.31 22.80 61.95 C 22.26 57.23 22.21 52.07 24.84 47.91 C 30.08 39.09 40.30 34.77 45.41 25.87 C 46.00 25.56 46.59 25.24 47.18 24.92 C 49.75 26.35 52.29 27.83 54.79 29.39 C 52.62 31.36 50.10 33.09 48.56 35.64 C 47.78 37.28 48.76 39.00 49.49 40.46 C 53.25 46.98 57.88 53.38 64.67 57.00 C 67.53 54.12 70.17 50.95 73.59 48.70 C 89.29 57.87 102.86 70.26 118.83 79.00 C 119.20 80.69 118.80 82.70 119.75 84.21 C 123.01 86.76 126.86 88.38 130.36 90.56 C 133.00 93.59 135.54 97.23 139.63 98.32 C 143.44 99.27 147.41 99.04 151.30 99.03 C 148.27 91.32 141.85 84.86 133.76 82.63 C 127.02 78.61 121.67 71.92 113.56 70.58 C 109.20 65.77 103.91 61.96 98.91 57.86 C 98.74 54.84 98.42 51.83 97.85 48.86 C 101.13 45.58 104.93 42.90 108.60 40.08 C 106.39 35.93 103.69 32.01 100.20 28.84 C 94.81 23.54 88.06 19.97 82.43 14.96 M 157.59 110.55 C 159.43 120.77 170.47 123.93 177.43 129.91 L 175.61 129.64 C 183.84 138.86 195.71 143.83 204.13 152.86 C 216.50 165.14 228.80 177.49 241.10 189.85 C 243.60 192.41 245.74 195.29 248.02 198.05 C 258.77 210.93 270.90 222.68 280.61 236.42 C 284.32 241.61 288.91 246.09 292.98 250.99 C 298.93 257.81 303.89 265.42 309.73 272.33 C 333.29 300.83 362.16 324.19 387.54 350.96 C 385.54 357.56 383.07 364.03 380.26 370.32 C 378.05 371.39 375.51 371.56 373.13 372.14 C 373.07 374.06 373.01 375.98 372.95 377.90 C 377.48 381.77 382.60 386.64 389.05 385.94 C 390.49 384.46 391.29 382.39 392.97 381.17 C 398.26 381.72 403.59 381.57 408.88 381.86 C 412.99 384.67 416.73 388.20 421.60 389.70 C 423.68 388.06 425.37 385.48 428.00 384.82 C 431.45 385.84 434.64 387.58 438.02 388.80 C 438.04 388.26 438.06 387.18 438.07 386.65 C 445.13 391.61 452.75 395.89 458.93 402.00 C 464.09 407.38 471.84 408.39 478.00 412.17 C 496.18 422.98 515.36 431.99 534.76 440.36 C 535.49 441.86 536.57 443.16 538.00 444.05 C 550.59 452.88 565.77 456.61 579.38 463.50 C 604.53 476.68 631.17 486.73 657.98 495.97 C 661.52 497.03 664.43 499.39 666.85 502.13 C 671.84 507.80 679.49 511.05 687.03 510.75 C 692.42 510.64 697.54 508.49 702.94 508.45 C 714.12 508.19 724.82 512.15 735.92 512.80 C 742.29 513.22 748.69 512.90 755.07 513.00 C 762.75 513.03 770.29 514.84 777.97 514.98 C 783.96 515.10 789.97 515.02 795.97 514.98 C 807.49 514.78 818.37 510.64 829.26 507.37 C 833.18 505.86 837.05 509.33 841.00 507.78 C 847.26 505.72 850.92 499.13 850.93 492.76 C 849.70 495.11 848.26 497.40 845.99 498.89 C 846.84 496.66 847.54 494.38 848.28 492.12 C 847.73 492.09 846.63 492.05 846.08 492.03 C 844.33 488.20 843.61 483.98 845.39 480.01 C 849.59 480.04 854.35 479.68 857.51 476.55 C 859.51 474.31 858.70 471.02 857.40 468.65 C 850.70 455.48 843.80 442.42 836.46 429.60 C 825.12 410.77 810.22 394.50 796.80 377.19 C 794.45 373.96 791.47 371.26 788.14 369.09 C 788.03 369.76 787.81 371.11 787.69 371.78 C 781.35 365.07 774.80 358.55 768.18 352.10 C 767.90 349.21 766.99 346.27 764.60 344.42 C 756.27 337.37 748.25 329.95 739.56 323.33 C 736.14 320.70 732.44 317.80 731.57 313.31 C 730.00 307.15 725.86 301.59 720.00 298.96 C 714.09 296.00 707.30 296.93 700.97 295.95 C 696.91 295.39 693.51 292.93 689.98 291.05 C 676.83 283.98 664.34 275.72 650.91 269.15 C 646.14 266.82 641.16 264.95 636.39 262.63 C 627.29 258.26 617.61 255.31 608.12 251.92 C 604.19 250.94 603.21 246.61 601.35 243.59 C 598.27 237.44 591.16 235.25 587.01 230.08 C 583.76 226.33 581.13 221.52 576.26 219.67 C 572.29 218.60 568.11 219.00 564.05 218.95 C 560.29 219.16 556.21 218.83 552.84 220.80 C 548.43 223.68 545.84 228.43 542.91 232.65 C 534.95 229.79 533.93 220.07 527.85 215.11 C 523.03 210.26 515.68 210.16 509.31 210.53 C 501.24 210.87 496.31 219.82 487.99 219.01 C 478.48 218.36 469.23 215.87 459.98 213.74 C 450.79 211.50 441.40 210.15 432.28 207.64 C 422.17 205.27 412.06 202.10 401.59 202.08 L 402.37 203.11 C 401.90 203.00 400.95 202.77 400.48 202.66 C 398.69 199.32 395.01 197.90 391.86 196.18 C 386.22 193.45 380.49 190.88 374.70 188.47 C 368.45 185.85 361.75 188.34 355.82 190.61 C 350.01 189.01 344.27 187.13 338.46 185.53 L 339.18 185.67 C 332.60 181.78 324.88 180.40 317.35 179.85 C 311.53 181.69 306.41 185.38 300.35 186.46 C 299.04 186.78 297.91 185.82 296.82 185.27 C 288.40 180.12 281.00 173.44 272.30 168.74 C 265.94 165.23 258.73 163.68 251.62 162.50 C 246.37 161.64 240.72 163.55 237.93 168.27 C 224.27 154.64 210.64 140.67 194.41 130.08 C 191.73 125.52 186.73 123.28 182.34 120.75 C 174.52 116.47 166.84 110.90 157.59 110.55 M 263.93 139.12 C 264.68 143.56 268.09 146.82 271.43 149.51 C 277.13 153.59 283.33 156.91 289.00 161.05 C 291.56 162.51 296.65 164.89 298.13 161.05 C 295.88 156.88 291.04 155.29 287.29 152.80 C 279.49 148.26 273.34 140.43 263.93 139.12 M 265.84 153.99 C 266.18 159.38 269.80 163.91 274.16 166.80 C 277.08 168.82 280.79 170.99 284.30 169.00 C 280.57 161.64 272.96 157.48 265.84 153.99 M 768.89 338.22 C 773.29 346.96 781.15 353.20 787.60 360.36 C 791.48 364.72 794.37 370.14 799.32 373.45 C 801.38 373.81 804.04 372.42 803.96 370.06 C 803.90 366.87 801.87 364.05 801.88 360.89 C 805.65 358.93 809.96 358.84 814.03 359.76 C 816.33 360.49 818.18 358.74 819.45 357.06 C 813.36 349.80 805.78 343.65 797.10 339.79 C 794.83 341.36 792.82 344.86 789.66 343.58 C 782.70 341.91 776.13 338.60 768.89 338.22 M 808.32 340.73 C 813.13 346.86 818.66 352.72 825.60 356.44 C 827.57 357.68 829.87 356.88 831.99 356.54 C 828.68 350.37 823.89 344.94 818.39 340.62 C 815.49 338.01 811.41 339.15 808.32 340.73 M 852.06 425.12 C 846.84 433.16 855.70 446.15 865.16 442.93 C 864.47 435.10 858.51 428.96 852.06 425.12 M 880.89 461.38 C 883.27 465.44 887.19 468.19 890.57 471.36 C 898.09 477.87 902.94 487.00 911.07 492.88 C 914.47 495.41 918.76 497.66 923.05 495.91 C 915.51 481.07 900.68 472.28 889.16 460.90 C 886.84 458.02 883.46 460.22 880.89 461.38 M 874.09 483.21 C 874.80 485.46 874.52 488.68 877.00 489.85 C 881.84 492.65 887.61 494.44 891.16 499.02 C 886.31 499.78 881.38 499.86 876.53 500.60 C 876.69 501.45 877.02 503.16 877.18 504.01 C 884.60 506.74 892.00 510.40 899.93 511.13 C 902.26 508.64 904.29 505.86 906.06 502.95 C 907.46 500.75 907.59 497.32 905.11 495.83 C 896.13 489.13 885.74 482.72 874.09 483.21 M 858.01 508.03 C 858.01 509.59 858.03 511.17 858.05 512.74 C 871.52 516.56 882.00 529.82 896.97 527.83 C 896.28 524.13 893.94 520.95 890.32 519.70 C 882.55 516.86 876.15 511.13 868.08 509.03 C 864.82 508.02 861.38 507.95 858.01 508.03 Z" />
<path fill="#ffac00" opacity="1.00" d=" M 677.66 302.17 C 679.89 302.32 682.11 302.45 684.35 302.68 C 686.49 303.78 688.60 304.93 690.73 306.08 C 689.49 309.48 688.14 312.84 687.06 316.29 C 686.11 314.97 685.18 313.66 684.20 312.38 C 682.10 310.75 679.57 309.84 677.10 308.95 C 677.34 306.69 677.48 304.43 677.66 302.17 Z" />
</g>
<g id="#869b00ff">
<path fill="#869b00" opacity="1.00" d=" M 113.56 70.58 C 121.67 71.92 127.02 78.61 133.76 82.63 C 136.11 85.77 138.19 89.11 140.34 92.40 C 137.02 91.78 133.68 91.23 130.36 90.56 C 126.86 88.38 123.01 86.76 119.75 84.21 C 118.80 82.70 119.20 80.69 118.83 79.00 C 120.19 79.72 121.57 80.42 122.94 81.12 C 119.52 77.88 116.36 74.37 113.56 70.58 Z" />
<path fill="#869b00" opacity="1.00" d=" M 10.74 73.70 C 15.19 81.05 18.71 89.05 24.38 95.60 C 39.64 113.43 58.67 127.38 75.94 143.11 C 81.03 147.68 85.71 152.68 90.86 157.18 C 100.92 166.08 111.79 174.18 120.62 184.37 C 122.37 186.28 123.69 188.66 125.81 190.18 C 127.94 190.05 130.03 189.61 132.13 189.23 C 133.34 189.99 134.56 190.76 135.77 191.54 C 137.18 192.47 138.57 193.42 139.99 194.35 C 137.42 194.35 134.85 194.43 132.28 194.53 C 132.04 202.75 140.66 205.53 145.37 210.60 C 167.33 233.85 181.83 263.17 191.39 293.45 C 201.99 327.20 221.61 357.62 245.74 383.29 C 260.34 398.38 274.87 413.54 288.80 429.27 C 297.18 438.55 305.07 448.28 313.22 457.76 C 325.86 471.87 340.47 484.00 355.28 495.74 C 382.70 518.28 412.58 537.59 442.69 556.30 C 519.08 604.42 607.86 630.13 697.16 639.76 C 722.64 642.31 748.36 646.27 773.98 643.09 C 800.51 639.71 827.31 640.26 853.93 638.11 C 882.35 636.67 908.19 623.76 934.23 613.61 C 920.14 627.74 905.65 641.52 890.30 654.28 C 866.78 673.22 842.80 691.96 815.97 706.03 C 811.79 707.71 811.93 712.67 811.57 716.42 C 817.76 713.62 823.67 710.23 829.99 707.73 C 827.56 709.80 824.97 711.68 822.16 713.21 C 817.21 715.93 812.55 719.45 806.91 720.65 C 800.71 722.02 794.46 723.11 788.29 724.60 C 780.69 725.68 773.29 727.76 765.97 730.01 C 753.56 733.94 740.67 735.96 727.87 738.18 C 703.43 742.15 678.72 744.46 653.98 745.24 C 614.23 746.23 574.16 744.49 535.12 736.49 C 499.21 729.29 464.40 717.59 430.08 704.95 C 399.11 693.38 369.16 679.10 340.61 662.43 C 299.69 639.01 259.41 612.74 228.09 577.00 C 225.27 573.46 221.31 571.02 218.64 567.35 C 212.49 558.68 207.72 549.12 201.63 540.42 C 195.53 531.98 189.96 523.16 185.06 513.97 C 165.25 476.84 154.82 435.79 142.41 395.83 C 136.54 376.09 130.74 356.25 122.55 337.31 C 120.47 332.55 118.41 327.74 115.57 323.37 C 112.44 318.54 108.71 314.13 105.70 309.22 C 102.66 304.33 100.94 298.78 98.41 293.64 C 86.48 268.68 68.86 247.13 54.12 223.87 C 44.89 209.17 35.66 194.41 28.17 178.73 C 20.32 162.57 15.08 145.19 12.36 127.45 C 10.49 115.05 9.81 102.51 9.13 90.00 C 8.81 84.52 9.73 79.07 10.74 73.70 Z" />
<path fill="#869b00" opacity="1.00" d=" M 157.59 110.55 C 166.84 110.90 174.52 116.47 182.34 120.75 C 186.73 123.28 191.73 125.52 194.41 130.08 C 191.25 128.66 187.99 127.50 184.77 126.27 C 184.99 128.78 185.20 131.29 185.41 133.81 C 182.77 132.47 180.08 131.22 177.43 129.91 C 170.47 123.93 159.43 120.77 157.59 110.55 Z" />
<path fill="#869b00" opacity="1.00" d=" M 317.35 179.85 C 324.88 180.40 332.60 181.78 339.18 185.67 L 338.46 185.53 C 333.80 184.63 329.14 183.77 324.49 182.90 C 324.56 185.19 324.64 187.49 324.73 189.79 C 331.07 191.87 337.39 194.06 343.56 196.64 C 342.79 196.76 341.27 197.00 340.50 197.12 C 332.36 194.53 324.40 191.40 316.56 188.01 C 316.81 185.29 317.07 182.57 317.35 179.85 Z" />
<path fill="#869b00" opacity="1.00" d=" M 460.38 227.46 C 463.20 225.64 467.00 226.34 469.17 228.82 C 466.79 229.54 464.50 230.54 462.23 231.55 L 461.52 231.87 C 460.59 230.56 458.67 228.98 460.38 227.46 Z" />
<path fill="#869b00" opacity="1.00" d=" M 671.17 316.19 C 675.11 311.10 675.81 304.47 676.75 298.32 C 679.28 299.77 681.79 301.28 684.35 302.68 C 682.11 302.45 679.89 302.32 677.66 302.17 C 677.48 304.43 677.34 306.69 677.10 308.95 C 676.00 318.46 666.45 324.50 657.53 325.25 C 653.53 325.74 648.14 324.58 645.93 328.95 C 642.79 333.09 644.59 339.88 639.74 342.76 C 636.80 344.86 633.81 346.87 630.92 349.04 C 630.79 352.30 630.66 355.56 630.53 358.82 C 619.61 359.59 608.65 356.35 599.46 350.53 C 593.75 346.80 591.46 339.44 592.10 332.91 C 592.27 331.01 594.53 330.62 595.81 329.66 C 594.64 334.49 592.63 340.38 596.27 344.67 C 604.13 353.82 616.74 356.93 628.36 357.33 C 627.71 355.25 627.49 352.83 625.82 351.26 C 624.28 349.88 622.33 349.10 620.51 348.20 C 627.04 347.46 633.95 345.52 638.38 340.34 C 642.78 335.63 642.24 328.72 642.96 322.77 C 647.97 323.38 653.03 324.15 658.08 323.58 C 663.21 323.04 667.92 320.14 671.17 316.19 Z" />
<path fill="#869b00" opacity="1.00" d=" M 367.32 313.40 C 368.55 312.49 369.79 311.57 371.02 310.65 C 374.50 316.44 379.99 320.60 385.75 323.94 C 384.91 323.96 383.24 323.99 382.41 324.01 C 383.27 325.82 384.13 327.64 385.08 329.43 C 379.05 324.21 373.06 318.94 367.32 313.40 Z" />
<path fill="#869b00" opacity="1.00" d=" M 590.56 429.87 C 595.40 429.35 600.27 430.35 604.55 432.66 C 603.38 434.46 602.82 436.91 601.02 438.17 C 596.02 438.17 592.88 433.71 590.56 429.87 Z" />
<path fill="#869b00" opacity="1.00" d=" M 665.12 439.31 C 667.40 437.81 669.72 436.36 672.06 434.95 C 672.22 437.85 672.36 440.84 671.01 443.52 C 668.92 442.29 666.98 440.85 665.12 439.31 Z" />
</g>
<g id="#ff7f00ff">
<path fill="#ff7f00" opacity="1.00" d=" M 133.76 82.63 C 141.85 84.86 148.27 91.32 151.30 99.03 C 147.41 99.04 143.44 99.27 139.63 98.32 C 135.54 97.23 133.00 93.59 130.36 90.56 C 133.68 91.23 137.02 91.78 140.34 92.40 C 138.19 89.11 136.11 85.77 133.76 82.63 Z" />
<path fill="#ff7f00" opacity="1.00" d=" M 237.93 168.27 C 240.72 163.55 246.37 161.64 251.62 162.50 C 258.73 163.68 265.94 165.23 272.30 168.74 C 281.00 173.44 288.40 180.12 296.82 185.27 C 297.91 185.82 299.04 186.78 300.35 186.46 C 306.41 185.38 311.53 181.69 317.35 179.85 C 317.07 182.57 316.81 185.29 316.56 188.01 C 324.40 191.40 332.36 194.53 340.50 197.12 C 360.09 206.65 382.11 208.89 402.55 215.98 C 399.80 221.88 396.04 228.25 397.88 234.99 C 399.60 239.30 403.56 242.41 407.65 244.37 C 413.58 247.10 419.92 243.95 426.06 244.18 C 429.09 244.58 431.60 246.54 434.09 248.17 C 437.66 250.83 441.51 253.07 445.32 255.37 C 445.53 257.78 445.76 260.19 446.04 262.60 C 453.16 266.51 460.28 272.73 469.03 271.05 C 476.38 270.12 481.25 263.29 482.52 256.41 C 488.92 257.99 495.73 260.34 502.29 258.26 C 507.36 255.97 511.08 251.44 516.31 249.42 C 520.99 247.72 525.12 244.89 528.82 241.60 C 536.21 242.95 544.24 243.77 550.29 248.68 C 553.37 251.24 556.78 253.46 559.47 256.45 C 561.99 261.10 563.34 266.85 568.10 269.87 C 572.52 273.21 578.24 273.37 583.54 273.66 C 581.63 281.52 581.08 290.75 586.67 297.31 C 596.97 310.43 620.47 306.70 627.04 291.65 C 629.00 292.70 630.95 293.76 632.91 294.82 C 632.25 299.56 632.01 304.34 631.70 309.10 C 625.48 308.69 618.63 307.65 613.04 311.14 C 605.31 315.40 604.14 326.09 595.81 329.66 C 594.53 330.62 592.27 331.01 592.10 332.91 C 591.46 339.44 593.75 346.80 599.46 350.53 C 608.65 356.35 619.61 359.59 630.53 358.82 C 630.66 355.56 630.79 352.30 630.92 349.04 C 633.81 346.87 636.80 344.86 639.74 342.76 C 644.59 339.88 642.79 333.09 645.93 328.95 C 648.14 324.58 653.53 325.74 657.53 325.25 C 666.45 324.50 676.00 318.46 677.10 308.95 C 679.57 309.84 682.10 310.75 684.20 312.38 C 683.51 319.33 684.35 326.28 685.36 333.16 C 681.84 337.35 676.39 339.80 673.83 344.75 C 671.68 351.86 672.10 360.78 677.73 366.25 C 684.60 372.82 695.87 373.70 704.02 369.03 C 707.75 366.84 710.95 363.32 711.85 359.00 C 712.87 354.73 712.17 350.31 712.85 346.01 C 713.65 344.32 714.91 342.91 716.04 341.43 C 715.43 341.36 714.23 341.23 713.62 341.16 C 715.51 340.20 717.35 339.15 719.16 338.03 C 722.03 337.37 724.98 336.45 727.96 336.78 C 735.33 339.93 740.76 346.76 748.84 348.46 C 751.60 350.57 754.19 352.90 756.79 355.23 C 757.76 360.46 762.15 363.78 765.82 367.18 C 775.33 375.49 783.82 385.21 789.64 396.48 C 785.46 395.92 779.94 396.69 777.28 392.64 C 773.43 386.85 770.77 379.16 763.69 376.56 C 757.23 374.78 750.04 374.38 743.70 376.82 C 738.85 378.70 735.72 383.33 734.23 388.14 C 732.12 394.64 732.67 402.06 736.09 408.02 C 737.14 410.20 739.80 410.42 741.79 411.28 C 748.70 414.33 756.30 415.61 763.81 414.52 C 765.53 421.87 769.33 428.90 775.43 433.51 C 780.38 437.39 786.94 439.37 793.19 438.16 C 795.92 437.74 798.92 437.04 800.60 434.62 C 804.69 429.29 804.58 422.18 805.38 415.81 C 809.81 419.35 813.58 423.65 818.34 426.77 C 819.57 428.58 820.77 430.42 821.93 432.29 C 822.33 435.96 823.26 439.59 825.17 442.78 C 832.14 455.07 837.61 468.18 845.39 480.01 C 843.61 483.98 844.33 488.20 846.08 492.03 C 843.50 491.95 840.90 491.94 838.36 492.35 C 834.56 493.43 830.90 494.92 827.06 495.84 C 815.27 497.68 804.00 502.38 791.97 502.69 C 779.73 503.36 767.47 502.31 755.29 501.17 C 756.39 496.82 757.92 492.51 758.12 487.99 C 758.23 481.08 753.40 474.74 747.30 471.87 C 741.32 469.63 734.78 471.02 728.88 472.82 C 726.01 473.55 722.85 474.43 721.15 477.08 C 717.23 482.59 716.50 489.99 711.19 494.59 C 710.57 490.02 709.72 485.29 710.78 480.73 C 713.00 474.72 718.42 469.87 718.56 463.14 C 718.29 457.75 715.99 452.75 714.29 447.72 C 716.17 445.04 718.15 442.43 720.18 439.85 C 718.22 440.57 716.26 441.30 714.35 442.13 C 717.72 439.07 721.02 435.83 723.36 431.89 C 731.21 422.08 724.28 406.48 712.91 403.12 C 705.53 401.18 697.37 401.82 690.66 405.60 C 684.78 408.80 679.63 413.24 675.04 418.09 C 670.52 422.84 669.51 429.55 667.52 435.55 C 657.07 436.01 646.59 436.25 636.14 435.57 C 640.85 429.80 647.93 424.31 647.69 416.15 C 646.79 409.73 643.78 401.45 636.33 400.59 C 629.79 399.90 622.28 398.50 616.46 402.40 C 610.88 406.31 610.29 413.58 608.43 419.57 C 601.98 420.34 595.54 419.45 589.15 418.61 C 590.70 411.65 592.97 404.51 591.53 397.33 C 590.09 390.14 583.60 385.09 576.93 382.97 C 570.17 380.54 562.82 383.07 556.02 380.95 C 552.44 379.83 548.79 378.94 545.07 378.53 C 544.87 378.49 544.47 378.41 544.28 378.37 C 538.13 376.21 531.04 379.07 525.29 375.73 C 519.34 370.04 520.41 360.26 514.32 354.66 C 509.17 350.60 502.43 349.14 496.01 348.93 C 492.08 348.73 488.21 349.69 484.30 349.53 C 479.27 347.18 475.42 342.59 469.90 341.15 C 464.84 339.50 459.19 340.85 454.28 338.74 C 447.48 332.27 447.46 321.64 441.29 314.71 C 435.44 308.96 426.90 308.09 419.51 305.44 C 418.41 298.35 418.67 290.20 413.28 284.71 C 405.29 275.02 390.36 272.65 379.42 278.49 C 373.37 281.71 368.89 287.67 367.40 294.35 C 366.60 298.05 366.11 301.81 365.37 305.53 C 357.39 300.52 350.85 293.60 344.87 286.40 C 352.61 283.87 361.31 281.17 365.98 273.96 C 369.34 267.74 370.32 259.65 366.69 253.33 C 360.39 242.07 344.56 236.55 333.09 243.17 C 327.02 246.22 324.25 252.73 320.53 258.02 C 315.76 253.86 311.46 249.17 308.06 243.82 C 311.70 239.37 315.75 234.79 316.80 228.94 C 317.66 224.50 316.55 219.15 312.57 216.52 C 309.69 214.52 306.03 214.83 302.71 214.89 C 295.62 213.65 292.37 220.79 289.06 225.60 C 272.89 205.73 255.86 186.56 237.93 168.27 M 524.38 253.46 C 518.97 255.86 515.21 260.89 512.63 266.05 C 512.43 271.06 512.46 276.52 515.05 280.99 C 518.48 285.47 522.41 289.57 526.47 293.49 C 530.00 296.85 535.26 296.39 539.75 296.55 C 539.53 293.43 539.28 290.32 539.08 287.21 C 542.80 283.40 546.01 279.13 548.77 274.59 C 551.53 276.96 554.22 279.96 558.21 279.75 C 558.23 277.46 558.24 275.17 558.28 272.88 C 554.42 269.29 549.75 266.70 546.01 262.98 C 543.64 260.67 542.28 257.43 539.50 255.54 C 535.16 252.58 529.35 251.79 524.38 253.46 M 492.28 275.89 C 489.29 280.10 485.58 284.50 485.72 289.97 C 486.36 297.15 492.69 303.19 499.89 303.57 C 505.86 304.26 512.13 301.17 514.73 295.66 C 518.20 289.94 515.49 282.96 512.22 277.83 C 506.34 273.99 498.86 274.66 492.28 275.89 M 462.33 283.50 C 451.71 285.71 446.30 300.39 453.22 308.84 C 457.35 315.23 466.11 317.41 472.99 314.53 C 478.68 312.43 482.46 306.75 483.32 300.90 C 484.35 290.09 472.95 280.06 462.33 283.50 M 541.54 310.71 C 532.35 312.79 524.73 321.41 524.79 331.00 C 524.13 343.19 535.88 354.34 548.07 352.76 C 557.87 352.28 566.77 343.80 567.20 333.91 C 567.33 329.30 567.11 324.39 564.51 320.42 C 559.79 312.93 550.19 308.92 541.54 310.71 M 778.49 450.62 C 767.13 454.37 760.23 467.82 763.66 479.24 C 765.99 486.85 772.34 492.95 780.02 495.05 C 786.51 497.02 793.48 496.78 800.11 495.67 C 809.50 493.55 817.57 485.62 819.03 475.97 C 819.32 472.93 821.80 470.83 822.91 468.12 C 823.14 465.85 822.98 463.57 822.92 461.30 C 820.79 459.57 818.81 457.45 816.04 456.83 C 810.08 455.12 805.42 450.29 799.14 449.50 C 792.29 448.62 785.10 448.32 778.49 450.62 Z" />
<path fill="#ff7f00" opacity="1.00" d=" M 355.82 190.61 C 361.75 188.34 368.45 185.85 374.70 188.47 C 380.49 190.88 386.22 193.45 391.86 196.18 C 395.01 197.90 398.69 199.32 400.48 202.66 C 385.29 199.86 370.64 194.86 355.82 190.61 Z" />
<path fill="#ff7f00" opacity="1.00" d=" M 462.23 231.55 C 464.50 230.54 466.79 229.54 469.17 228.82 C 472.00 228.88 474.81 229.24 477.63 229.49 C 477.11 233.42 476.55 237.34 475.93 241.25 C 475.80 240.54 475.54 239.11 475.41 238.40 C 471.60 238.85 467.80 239.32 464.00 239.82 C 463.41 237.06 462.81 234.31 462.23 231.55 Z" />
<path fill="#ff7f00" opacity="1.00" d=" M 382.41 324.01 C 383.24 323.99 384.91 323.96 385.75 323.94 C 390.69 324.01 395.63 323.77 400.58 323.60 C 399.33 328.83 398.17 334.08 397.11 339.36 C 392.88 336.32 388.74 333.13 385.08 329.43 C 384.13 327.64 383.27 325.82 382.41 324.01 Z" />
<path fill="#ff7f00" opacity="1.00" d=" M 423.90 363.51 C 431.07 360.86 437.69 356.41 442.02 350.01 C 437.63 358.04 437.37 367.75 440.44 376.28 C 435.14 371.75 429.62 367.49 423.90 363.51 Z" />
<path fill="#ff7f00" opacity="1.00" d=" M 486.51 362.06 C 492.67 359.62 500.47 359.70 505.63 364.30 C 508.21 366.48 509.04 369.89 509.35 373.12 C 505.73 374.65 502.13 376.22 498.57 377.86 C 495.62 371.80 489.94 367.78 486.51 362.06 Z" />
<path fill="#ff7f00" opacity="1.00" d=" M 537.28 390.04 C 539.60 390.81 541.92 391.60 544.23 392.41 C 542.23 396.47 538.52 400.34 540.40 405.23 C 538.83 403.68 537.29 402.04 536.46 399.96 C 535.87 396.63 536.18 393.22 537.28 390.04 Z" />
<path fill="#ff7f00" opacity="1.00" d=" M 572.82 445.89 C 576.16 442.52 579.17 438.52 583.78 436.80 C 587.15 440.97 591.46 444.24 596.12 446.84 C 595.99 449.97 595.88 453.10 595.74 456.23 C 587.66 453.87 579.89 450.45 572.82 445.89 Z" />
</g>
<g id="#ceb300ff">
<path fill="#ceb300" opacity="1.00" d=" M 387.83 107.92 C 402.34 109.79 416.65 112.86 431.13 114.91 C 457.71 118.90 484.72 121.03 510.62 128.62 C 534.41 135.41 557.73 143.68 581.12 151.74 C 596.48 157.09 612.04 161.88 627.18 167.85 C 644.18 174.41 660.86 181.79 677.30 189.66 C 706.98 203.97 736.13 219.42 764.16 236.74 C 797.69 257.35 830.39 279.26 863.45 300.60 C 880.14 311.50 896.66 323.02 910.57 337.42 C 929.31 357.37 943.21 381.15 958.03 404.01 C 968.43 417.95 976.83 433.51 981.79 450.23 C 986.66 465.97 987.42 482.64 986.80 499.01 C 986.05 511.87 983.99 525.13 977.41 536.42 C 972.07 546.19 965.86 555.45 959.78 564.77 C 953.33 574.76 950.02 586.82 941.44 595.38 C 930.95 605.35 917.23 610.86 903.85 615.78 C 892.95 619.50 882.34 624.27 870.94 626.34 C 850.89 630.24 830.36 629.59 810.05 630.71 C 792.34 631.60 774.75 633.95 757.05 634.93 C 742.93 634.98 728.85 633.68 714.82 632.17 C 697.93 630.17 680.98 628.54 664.19 625.80 C 623.69 619.45 583.37 610.42 545.19 595.28 C 552.28 593.36 558.78 597.60 565.36 599.53 C 589.68 607.39 614.43 614.13 639.65 618.41 C 657.70 621.71 675.77 625.06 694.02 627.02 C 701.54 628.00 709.17 627.96 716.63 629.41 C 743.86 634.48 771.66 631.17 798.93 628.31 C 814.92 626.87 831.00 628.28 846.99 626.86 C 864.96 625.62 882.26 620.07 899.12 614.03 C 913.08 608.63 927.91 603.52 938.72 592.68 C 946.28 585.25 950.10 575.19 954.90 565.97 C 960.14 556.12 967.03 547.29 972.66 537.67 C 977.87 528.94 980.52 518.99 982.22 509.04 C 987.33 478.57 980.10 446.82 964.81 420.23 C 959.90 412.22 952.98 405.63 948.55 397.31 C 940.89 383.15 931.94 369.70 922.08 356.99 C 914.92 347.88 907.74 338.66 898.90 331.09 C 885.51 319.18 870.34 309.55 855.56 299.49 C 820.87 277.57 787.01 254.34 751.86 233.15 C 736.41 223.62 720.25 215.33 704.25 206.80 C 672.62 190.31 640.19 175.18 606.45 163.50 C 595.06 159.32 583.16 156.65 571.94 152.02 C 554.75 145.47 537.27 139.76 519.65 134.53 C 510.70 132.02 501.85 129.07 492.68 127.44 C 477.98 124.59 463.21 122.09 448.30 120.61 C 431.81 118.37 415.61 114.02 398.95 113.04 C 396.57 112.82 394.11 112.88 391.81 112.14 C 390.26 110.97 389.09 109.38 387.83 107.92 Z" />
<path fill="#ceb300" opacity="1.00" d=" M 340.50 197.12 C 341.27 197.00 342.79 196.76 343.56 196.64 C 365.83 203.71 388.28 210.30 411.08 215.48 C 407.93 217.54 404.79 219.62 401.68 221.75 C 401.52 226.31 400.86 230.95 401.82 235.46 C 402.94 240.44 408.14 243.59 413.03 243.61 C 416.62 243.55 420.12 242.56 423.61 241.77 C 425.38 239.56 427.18 237.38 428.98 235.19 C 428.86 232.25 429.14 229.26 428.59 226.36 C 427.26 223.67 425.32 221.36 423.66 218.88 C 429.32 219.97 434.97 221.10 440.64 222.18 C 437.41 225.38 433.56 228.22 431.52 232.38 C 429.70 237.68 431.09 243.58 434.09 248.17 C 431.60 246.54 429.09 244.58 426.06 244.18 C 419.92 243.95 413.58 247.10 407.65 244.37 C 403.56 242.41 399.60 239.30 397.88 234.99 C 396.04 228.25 399.80 221.88 402.55 215.98 C 382.11 208.89 360.09 206.65 340.50 197.12 Z" />
<path fill="#ceb300" opacity="1.00" d=" M 302.71 214.89 C 306.03 214.83 309.69 214.52 312.57 216.52 C 316.55 219.15 317.66 224.50 316.80 228.94 C 315.75 234.79 311.70 239.37 308.06 243.82 C 311.46 249.17 315.76 253.86 320.53 258.02 C 324.25 252.73 327.02 246.22 333.09 243.17 C 344.56 236.55 360.39 242.07 366.69 253.33 C 370.32 259.65 369.34 267.74 365.98 273.96 C 361.31 281.17 352.61 283.87 344.87 286.40 C 350.85 293.60 357.39 300.52 365.37 305.53 C 366.11 301.81 366.60 298.05 367.40 294.35 C 368.89 287.67 373.37 281.71 379.42 278.49 C 390.36 272.65 405.29 275.02 413.28 284.71 C 418.67 290.20 418.41 298.35 419.51 305.44 C 426.90 308.09 435.44 308.96 441.29 314.71 C 447.46 321.64 447.48 332.27 454.28 338.74 C 459.19 340.85 464.84 339.50 469.90 341.15 C 475.42 342.59 479.27 347.18 484.30 349.53 C 488.21 349.69 492.08 348.73 496.01 348.93 C 502.43 349.14 509.17 350.60 514.32 354.66 C 520.41 360.26 519.34 370.04 525.29 375.73 C 531.04 379.07 538.13 376.21 544.28 378.37 C 538.16 377.64 532.18 379.38 526.21 380.39 C 523.87 378.79 521.51 377.22 519.15 375.65 C 518.34 368.15 516.53 359.65 509.67 355.32 C 501.02 349.02 489.73 351.23 480.03 353.24 C 476.69 349.22 473.46 344.47 468.23 342.82 C 462.31 341.22 456.13 342.36 450.14 342.79 C 446.27 334.01 444.19 324.33 438.76 316.31 C 432.86 309.04 422.41 310.02 414.13 311.24 C 415.60 304.29 416.70 296.55 413.05 290.06 C 409.35 282.11 400.66 277.17 391.99 277.38 C 383.12 277.31 374.83 283.30 371.40 291.36 C 368.69 297.41 368.68 304.48 371.02 310.65 C 369.79 311.57 368.55 312.49 367.32 313.40 C 356.32 303.00 346.02 291.88 335.03 281.47 C 340.47 281.97 346.06 283.03 351.46 281.65 C 360.78 278.83 367.70 268.61 365.76 258.88 C 363.48 249.26 353.85 242.37 344.06 242.74 C 337.26 242.73 330.90 246.68 327.25 252.30 C 324.06 257.58 324.32 264.05 324.95 269.96 C 317.65 259.85 309.27 250.59 301.34 240.98 C 305.35 239.50 309.57 237.85 312.32 234.41 C 315.82 230.36 315.38 223.89 312.12 219.84 C 309.80 216.97 306.13 215.84 302.71 214.89 Z" />
<path fill="#ceb300" opacity="1.00" d=" M 684.20 312.38 C 685.18 313.66 686.11 314.97 687.06 316.29 C 686.35 323.15 686.98 331.35 693.24 335.58 C 682.92 336.09 673.40 346.24 676.17 356.78 C 678.07 368.39 693.63 373.84 702.75 366.83 C 707.36 363.79 708.87 358.22 710.18 353.19 C 709.07 352.14 707.84 351.18 707.01 349.90 C 705.96 347.26 707.20 344.48 707.72 341.86 C 709.68 341.63 711.65 341.40 713.62 341.16 C 714.23 341.23 715.43 341.36 716.04 341.43 C 714.91 342.91 713.65 344.32 712.85 346.01 C 712.17 350.31 712.87 354.73 711.85 359.00 C 710.95 363.32 707.75 366.84 704.02 369.03 C 695.87 373.70 684.60 372.82 677.73 366.25 C 672.10 360.78 671.68 351.86 673.83 344.75 C 676.39 339.80 681.84 337.35 685.36 333.16 C 684.35 326.28 683.51 319.33 684.20 312.38 Z" />
<path fill="#ceb300" opacity="1.00" d=" M 719.16 338.03 C 721.74 335.47 724.22 332.82 726.79 330.23 C 734.60 335.72 741.77 342.05 748.84 348.46 C 740.76 346.76 735.33 339.93 727.96 336.78 C 724.98 336.45 722.03 337.37 719.16 338.03 Z" />
<path fill="#ceb300" opacity="1.00" d=" M 601.15 335.58 C 602.64 335.77 604.14 335.98 605.64 336.20 C 606.14 337.96 606.66 339.72 607.20 341.49 C 609.35 342.29 611.50 343.13 613.63 344.03 C 611.74 344.08 609.85 344.12 607.97 344.16 C 605.21 341.72 602.73 338.94 601.15 335.58 Z" />
<path fill="#ceb300" opacity="1.00" d=" M 756.79 355.23 C 773.19 368.85 786.37 385.76 799.70 402.27 C 806.05 410.32 813.02 417.95 818.34 426.77 C 813.58 423.65 809.81 419.35 805.38 415.81 C 804.58 422.18 804.69 429.29 800.60 434.62 C 798.92 437.04 795.92 437.74 793.19 438.16 C 797.43 434.82 802.72 431.03 802.58 424.98 C 803.69 415.01 797.28 405.90 789.34 400.56 C 784.75 397.74 779.11 398.60 774.00 398.63 C 773.07 392.43 771.56 385.68 766.51 381.47 C 760.58 376.19 751.37 375.71 744.63 379.70 C 739.10 382.69 735.85 388.87 735.52 395.02 C 735.49 401.04 738.87 406.26 741.79 411.28 C 739.80 410.42 737.14 410.20 736.09 408.02 C 732.67 402.06 732.12 394.64 734.23 388.14 C 735.72 383.33 738.85 378.70 743.70 376.82 C 750.04 374.38 757.23 374.78 763.69 376.56 C 770.77 379.16 773.43 386.85 777.28 392.64 C 779.94 396.69 785.46 395.92 789.64 396.48 C 783.82 385.21 775.33 375.49 765.82 367.18 C 762.15 363.78 757.76 360.46 756.79 355.23 Z" />
<path fill="#ceb300" opacity="1.00" d=" M 545.07 378.53 C 548.79 378.94 552.44 379.83 556.02 380.95 C 562.82 383.07 570.17 380.54 576.93 382.97 C 583.60 385.09 590.09 390.14 591.53 397.33 C 592.97 404.51 590.70 411.65 589.15 418.61 C 595.54 419.45 601.98 420.34 608.43 419.57 C 610.29 413.58 610.88 406.31 616.46 402.40 C 622.28 398.50 629.79 399.90 636.33 400.59 C 643.78 401.45 646.79 409.73 647.69 416.15 C 647.93 424.31 640.85 429.80 636.14 435.57 C 646.59 436.25 657.07 436.01 667.52 435.55 C 669.51 429.55 670.52 422.84 675.04 418.09 C 679.63 413.24 684.78 408.80 690.66 405.60 C 697.37 401.82 705.53 401.18 712.91 403.12 C 724.28 406.48 731.21 422.08 723.36 431.89 C 724.03 426.97 724.71 421.83 723.18 417.00 C 720.52 408.25 710.87 402.60 701.91 404.09 C 694.78 404.74 689.08 409.43 683.52 413.47 C 676.94 418.58 672.00 426.42 672.06 434.95 C 669.72 436.36 667.40 437.81 665.12 439.31 C 656.08 433.53 645.32 438.64 635.98 440.84 C 633.63 438.57 631.26 436.32 628.90 434.07 C 633.38 431.75 638.41 429.75 641.48 425.52 C 647.03 417.97 644.09 405.44 635.16 401.92 C 624.67 397.04 610.96 406.43 611.94 418.03 C 611.38 423.24 615.62 426.83 619.05 430.01 C 616.70 430.03 614.34 430.20 612.00 429.95 C 608.19 427.50 605.27 423.67 600.88 422.12 C 594.88 419.68 588.58 422.41 582.74 423.96 C 583.13 421.80 583.34 419.51 584.76 417.74 C 588.43 412.73 590.81 406.44 589.77 400.17 C 588.49 393.41 583.41 387.53 576.94 385.22 C 569.77 382.54 561.84 383.48 554.70 385.75 C 551.65 383.13 548.47 380.67 545.07 378.53 Z" />
<path fill="#ceb300" opacity="1.00" d=" M 533.07 388.10 C 537.26 388.10 541.45 388.14 545.64 388.29 C 546.66 396.44 543.97 404.32 542.37 412.19 C 541.77 409.85 541.02 407.57 540.40 405.23 C 538.52 400.34 542.23 396.47 544.23 392.41 C 541.92 391.60 539.60 390.81 537.28 390.04 C 536.18 393.22 535.87 396.63 536.46 399.96 C 530.90 398.71 533.17 392.14 533.07 388.10 Z" />
<path fill="#ceb300" opacity="1.00" d=" M 529.98 427.38 C 533.15 425.63 536.42 424.07 539.60 422.33 C 538.54 424.98 537.84 427.75 537.37 430.56 C 534.91 429.48 532.44 428.43 529.98 427.38 Z" />
<path fill="#ceb300" opacity="1.00" d=" M 681.48 432.42 C 685.07 435.10 687.41 439.12 688.08 443.55 C 685.74 443.91 683.42 444.25 681.10 444.60 C 681.12 440.53 681.21 436.47 681.48 432.42 Z" />
<path fill="#ceb300" opacity="1.00" d=" M 714.35 442.13 C 716.26 441.30 718.22 440.57 720.18 439.85 C 718.15 442.43 716.17 445.04 714.29 447.72 C 715.99 452.75 718.29 457.75 718.56 463.14 C 718.42 469.87 713.00 474.72 710.78 480.73 C 709.72 485.29 710.57 490.02 711.19 494.59 C 716.50 489.99 717.23 482.59 721.15 477.08 C 722.85 474.43 726.01 473.55 728.88 472.82 C 725.50 476.56 721.57 480.09 719.65 484.85 C 718.58 488.88 718.91 493.12 718.72 497.26 C 714.18 496.74 709.65 496.28 705.11 495.96 C 707.63 490.69 706.95 484.78 706.87 479.14 C 710.48 474.73 714.80 470.10 714.91 464.04 C 715.73 457.08 711.80 450.90 708.01 445.45 C 710.16 444.43 712.29 443.35 714.35 442.13 Z" />
<path fill="#ceb300" opacity="1.00" d=" M 534.76 440.36 C 567.82 453.55 599.10 470.81 632.36 483.52 C 641.86 487.27 651.66 490.20 661.26 493.66 C 669.29 496.24 672.63 505.76 681.03 507.59 C 689.24 509.94 696.93 503.85 705.16 505.36 C 727.61 508.82 750.28 510.58 772.94 511.96 C 778.96 512.29 785.00 512.87 791.04 512.53 C 803.53 511.87 815.68 508.44 827.41 504.26 C 827.28 501.45 827.17 498.64 827.06 495.84 C 830.90 494.92 834.56 493.43 838.36 492.35 C 836.12 495.33 834.11 498.49 832.76 501.97 C 834.86 503.13 836.97 504.28 839.10 505.42 C 841.34 503.19 843.62 500.99 845.99 498.89 C 848.26 497.40 849.70 495.11 850.93 492.76 C 850.92 499.13 847.26 505.72 841.00 507.78 C 837.05 509.33 833.18 505.86 829.26 507.37 C 818.37 510.64 807.49 514.78 795.97 514.98 C 789.97 515.02 783.96 515.10 777.97 514.98 C 770.29 514.84 762.75 513.03 755.07 513.00 C 748.69 512.90 742.29 513.22 735.92 512.80 C 724.82 512.15 714.12 508.19 702.94 508.45 C 697.54 508.49 692.42 510.64 687.03 510.75 C 679.49 511.05 671.84 507.80 666.85 502.13 C 664.43 499.39 661.52 497.03 657.98 495.97 C 631.17 486.73 604.53 476.68 579.38 463.50 C 565.77 456.61 550.59 452.88 538.00 444.05 C 536.57 443.16 535.49 441.86 534.76 440.36 Z" />
<path fill="#ceb300" opacity="1.00" d=" M 656.89 482.07 C 663.15 477.27 669.18 472.10 673.98 465.80 C 673.56 470.38 669.65 472.86 666.56 475.68 C 666.43 478.60 666.27 481.52 666.09 484.44 C 662.92 484.06 659.84 483.27 656.89 482.07 Z" />
</g>
<g id="#f5f5f5ff">
<path fill="#f5f5f5" opacity="1.00" d=" M 515.21 223.38 C 518.15 223.77 521.09 224.32 523.84 225.48 C 521.05 227.08 517.90 227.81 514.71 227.88 C 514.83 226.76 515.09 224.51 515.21 223.38 Z" />
<path fill="#f5f5f5" opacity="1.00" d=" M 585.24 252.16 C 587.66 250.07 591.47 254.14 589.42 256.45 C 587.06 259.32 581.82 254.38 585.24 252.16 Z" />
<path fill="#f5f5f5" opacity="1.00" d=" M 462.77 252.62 C 464.18 252.62 465.59 252.61 467.01 252.62 C 467.03 256.18 466.93 259.75 466.84 263.32 C 465.42 262.56 464.01 261.81 462.59 261.06 C 462.65 258.24 462.74 255.43 462.77 252.62 Z" />
<path fill="#f5f5f5" opacity="1.00" d=" M 343.29 256.21 C 345.88 254.25 349.65 258.84 346.74 260.77 C 343.95 263.46 339.39 257.94 343.29 256.21 Z" />
<path fill="#f5f5f5" opacity="1.00" d=" M 610.65 270.48 C 612.41 271.11 614.59 271.51 615.55 273.36 C 617.38 276.41 616.20 280.03 615.20 283.14 C 613.37 279.04 610.48 275.17 610.65 270.48 Z" />
<path fill="#f5f5f5" opacity="1.00" d=" M 390.22 297.42 C 390.85 295.64 391.49 293.87 392.18 292.11 C 393.54 293.45 394.91 294.80 396.24 296.18 C 394.24 296.61 392.22 297.01 390.22 297.42 Z" />
<path fill="#f5f5f5" opacity="1.00" d=" M 646.19 297.60 C 649.54 300.39 653.60 302.07 657.66 303.56 C 653.67 304.71 647.81 307.46 644.87 303.08 C 643.30 301.16 645.20 299.25 646.19 297.60 Z" />
<path fill="#f5f5f5" opacity="1.00" d=" M 710.84 315.41 C 711.76 314.61 712.68 313.82 713.62 313.02 C 714.23 313.57 715.45 314.68 716.06 315.23 C 715.99 316.57 715.92 317.92 715.86 319.27 C 714.53 319.39 713.21 319.52 711.90 319.65 C 711.53 318.23 711.17 316.82 710.84 315.41 Z" />
<path fill="#f5f5f5" opacity="1.00" d=" M 418.42 319.37 C 419.68 319.38 420.94 319.40 422.20 319.43 C 423.22 323.23 424.49 326.95 425.53 330.74 C 419.71 330.57 417.61 324.26 418.42 319.37 Z" />
<path fill="#f5f5f5" opacity="1.00" d=" M 626.36 318.56 C 629.50 318.84 632.65 319.14 635.80 319.43 C 635.59 320.63 635.41 321.83 635.23 323.03 C 634.20 323.76 633.18 324.49 632.16 325.22 C 630.56 325.13 628.96 325.04 627.38 324.95 C 627.03 322.81 626.68 320.68 626.36 318.56 Z" />
<path fill="#f5f5f5" opacity="1.00" d=" M 456.27 354.32 C 460.12 356.30 464.05 358.13 467.99 359.94 C 464.74 361.60 461.07 361.64 457.51 361.51 C 457.09 359.11 456.67 356.71 456.27 354.32 Z" />
<path fill="#f5f5f5" opacity="1.00" d=" M 754.29 393.94 C 753.99 390.51 752.88 386.66 755.27 383.71 C 757.48 386.21 759.66 388.75 762.02 391.13 C 761.93 391.77 761.76 393.07 761.67 393.71 C 759.20 393.80 756.74 393.88 754.29 393.94 Z" />
<path fill="#f5f5f5" opacity="1.00" d=" M 511.48 389.86 C 514.22 389.35 517.53 389.08 519.63 391.31 C 521.16 392.78 520.78 395.02 520.52 396.91 C 517.14 395.09 513.82 392.98 511.48 389.86 Z" />
<path fill="#f5f5f5" opacity="1.00" d=" M 577.53 398.44 C 578.25 397.85 579.68 396.67 580.40 396.08 C 581.02 398.89 581.39 401.75 581.57 404.63 C 580.55 404.55 578.50 404.40 577.48 404.33 C 577.49 402.36 577.50 400.40 577.53 398.44 Z" />
<path fill="#f5f5f5" opacity="1.00" d=" M 486.69 405.06 C 489.20 402.54 495.23 405.27 493.09 408.84 C 490.24 410.02 487.22 407.93 486.69 405.06 Z" />
<path fill="#f5f5f5" opacity="1.00" d=" M 780.06 405.03 C 785.92 403.89 790.28 408.88 792.67 413.56 C 787.60 412.66 781.02 411.04 780.06 405.03 Z" />
<path fill="#f5f5f5" opacity="1.00" d=" M 565.13 414.70 C 566.46 414.76 567.80 414.82 569.14 414.89 C 569.12 418.54 569.01 422.19 568.91 425.84 C 567.66 425.74 566.41 425.64 565.17 425.55 C 565.10 421.93 565.11 418.32 565.13 414.70 Z" />
<path fill="#f5f5f5" opacity="1.00" d=" M 700.08 419.22 C 703.66 419.25 707.24 419.24 710.83 419.26 C 712.22 422.31 713.00 425.59 713.19 428.95 C 711.25 427.45 709.40 425.85 707.66 424.14 C 705.04 423.90 702.43 423.71 699.82 423.47 C 699.90 422.05 699.99 420.63 700.08 419.22 Z" />
<path fill="#f5f5f5" opacity="1.00" d=" M 656.68 439.91 C 662.34 441.86 666.98 446.40 668.79 452.15 C 663.48 449.89 655.65 447.19 656.68 439.91 Z" />
<path fill="#f5f5f5" opacity="1.00" d=" M 693.90 452.89 C 694.69 452.02 695.65 451.02 696.93 451.03 C 700.25 452.74 700.15 456.87 700.60 460.05 C 698.02 458.23 693.90 456.61 693.90 452.89 Z" />
<path fill="#f5f5f5" opacity="1.00" d=" M 790.18 463.46 C 791.29 458.84 796.85 458.80 800.58 459.48 C 806.52 461.62 808.42 468.57 807.92 474.29 C 805.61 471.51 803.86 468.22 801.08 465.88 C 797.63 464.44 793.79 464.35 790.18 463.46 Z" />
<path fill="#f5f5f5" opacity="1.00" d=" M 744.45 480.22 C 745.63 480.09 746.83 479.96 748.03 479.83 C 748.07 481.26 748.11 482.69 748.16 484.13 C 746.70 483.99 745.24 483.87 743.80 483.74 C 744.00 482.56 744.22 481.39 744.45 480.22 Z" />
</g>
<g id="#8c8f00ff">
<path fill="#8c8f00" opacity="1.00" d=" M 464.00 239.82 C 467.80 239.32 471.60 238.85 475.41 238.40 C 475.54 239.11 475.80 240.54 475.93 241.25 L 476.17 242.56 C 472.11 241.66 468.04 240.81 464.00 239.82 Z" />
</g>
</svg>
